<?xml version="1.0" encoding="UTF-8"?>
<svg version="1.1" xmlns="http://www.w3.org/2000/svg" width="1623" height="256">
<path d="M0 0 C36 0 36 0 43.875 7.3125 C45.52124023 9.81616211 45.52124023 9.81616211 46.49609375 12.02734375 C49.06044983 17.31483636 52.36565403 21.72986211 55.9375 26.375 C57.11748217 27.97346991 58.2932578 29.57505348 59.46484375 31.1796875 C62.96858992 35.95901776 66.4832578 40.73022791 70 45.5 C73.5604087 50.33069773 77.11974292 55.16217766 80.67578125 59.99609375 C87.07678641 68.69487376 93.49514807 77.37848991 100 86 C107.4217228 76.75658161 114.52702725 67.35551402 121.32836914 57.64916992 C124.99028284 52.42325945 128.69609799 47.23179364 132.4375 42.0625 C132.9752002 41.31943604 133.51290039 40.57637207 134.06689453 39.81079102 C135.15956355 38.30156434 136.25250069 36.79253175 137.34570312 35.28369141 C140.12918209 31.44120878 142.90866975 27.59584532 145.6875 23.75 C146.22270264 23.00959473 146.75790527 22.26918945 147.30932617 21.50634766 C151.23548711 16.07049511 155.13886949 10.61871653 159.01831055 5.14941406 C161.89350533 1.10649467 161.89350533 1.10649467 163 0 C174.88 0 186.76 0 199 0 C199 65.01 199 130.02 199 197 C186.79 197 174.58 197 162 197 C161.67 153.77 161.34 110.54 161 66 C152.09776962 77.68417737 143.25239484 89.33927492 134.5703125 101.17578125 C130.07030237 107.28257891 125.4613545 113.30565643 120.85327148 119.33105469 C116.04288986 125.6221439 111.27358375 131.9422853 106.54052734 138.29174805 C103.10002972 142.89997028 103.10002972 142.89997028 102 144 C99.65625 144.3046875 99.65625 144.3046875 97 144 C95.21875 142.4453125 95.21875 142.4453125 93.5 140.125 C92.81164063 139.20847656 92.12328125 138.29195312 91.4140625 137.34765625 C90.60775804 136.23293864 89.80320773 135.11695102 89 134 C88.02882981 132.6652307 87.05746353 131.33060407 86.0859375 129.99609375 C83.87734851 126.95197039 81.68030464 123.89981915 79.48828125 120.84375 C76.04927661 116.05636212 72.56349556 111.3046774 69.0625 106.5625 C68.4845166 105.7792334 67.9065332 104.9959668 67.31103516 104.18896484 C64.93576923 100.97164903 62.5587175 97.75565604 60.18115234 94.54003906 C58.36989918 92.08983352 56.55994124 89.63867472 54.75 87.1875 C53.95541382 86.11447632 53.95541382 86.11447632 53.14477539 85.01977539 C48.01314223 78.06913704 43.02419544 71.03387362 38 64 C37.67 107.89 37.34 151.78 37 197 C24.79 197 12.58 197 0 197 C0 131.99 0 66.98 0 0 Z " fill="#000000" transform="translate(1238,30)"/>
<path d="M0 0 C2.63065459 2.43449088 5.16392744 4.94432074 7.68286133 7.49487305 C8.36993164 8.18323242 9.05700195 8.8715918 9.76489258 9.58081055 C29.33916416 30.52483928 34.71763386 57.664142 34.06176758 85.31518555 C32.99296376 110.9999821 21.36653209 134.9042687 2.68286133 152.49487305 C-6.36168599 160.74608752 -16.11528589 166.63207537 -27.31713867 171.49487305 C-28.99356445 172.23543945 -28.99356445 172.23543945 -30.70385742 172.9909668 C-55.66672873 182.94657346 -86.68161379 181.91342102 -111.31713867 171.49487305 C-136.55137167 160.12243575 -156.00322581 140.18171377 -166.17114258 114.32299805 C-176.07686042 86.395881 -173.85301091 56.14926152 -161.34838867 29.4440918 C-149.12092827 4.81466491 -127.10208283 -10.48041888 -101.93432617 -19.7512207 C-68.27792007 -30.61197586 -26.67282201 -23.7313262 0 0 Z M-110.31713867 23.49487305 C-110.94491211 23.95635742 -111.57268555 24.4178418 -112.21948242 24.89331055 C-125.15854618 35.04504764 -132.76468494 52.19167724 -134.78588867 68.2097168 C-136.62773269 87.51593526 -132.67822683 106.2703218 -120.31713867 121.49487305 C-119.85823242 122.11491211 -119.39932617 122.73495117 -118.92651367 123.3737793 C-108.9646411 136.16963286 -92.98310725 143.08664513 -77.31713867 145.49487305 C-59.81176328 147.40594023 -42.52905363 143.25024484 -28.53588867 132.32299805 C-26.02709166 130.13157897 -23.65960815 127.86226241 -21.31713867 125.49487305 C-20.69323242 124.90448242 -20.06932617 124.3140918 -19.42651367 123.70581055 C-6.4671817 110.45460173 -2.79997394 92.31936579 -2.89697266 74.49755859 C-3.35041462 55.89195109 -10.04972279 40.62690714 -23.31713867 27.49487305 C-23.99260742 26.78588867 -24.66807617 26.0769043 -25.36401367 25.34643555 C-36.86496528 14.06166724 -53.05358552 9.52698961 -68.81713867 9.11987305 C-84.57365341 9.47983496 -97.89236816 13.95029469 -110.31713867 23.49487305 Z " fill="#000000" transform="translate(983.317138671875,50.505126953125)"/>
<path d="M0 0 C2.63065459 2.43449088 5.16392744 4.94432074 7.68286133 7.49487305 C8.36993164 8.18323242 9.05700195 8.8715918 9.76489258 9.58081055 C29.33916416 30.52483928 34.71763386 57.664142 34.06176758 85.31518555 C32.99296376 110.9999821 21.36653209 134.9042687 2.68286133 152.49487305 C-6.36168599 160.74608752 -16.11528589 166.63207537 -27.31713867 171.49487305 C-28.99356445 172.23543945 -28.99356445 172.23543945 -30.70385742 172.9909668 C-55.66672873 182.94657346 -86.68161379 181.91342102 -111.31713867 171.49487305 C-136.55137167 160.12243575 -156.00322581 140.18171377 -166.17114258 114.32299805 C-176.07686042 86.395881 -173.85301091 56.14926152 -161.34838867 29.4440918 C-149.12092827 4.81466491 -127.10208283 -10.48041888 -101.93432617 -19.7512207 C-68.27792007 -30.61197586 -26.67282201 -23.7313262 0 0 Z M-110.31713867 23.49487305 C-110.94491211 23.95635742 -111.57268555 24.4178418 -112.21948242 24.89331055 C-125.15854618 35.04504764 -132.76468494 52.19167724 -134.78588867 68.2097168 C-136.62773269 87.51593526 -132.67822683 106.2703218 -120.31713867 121.49487305 C-119.85823242 122.11491211 -119.39932617 122.73495117 -118.92651367 123.3737793 C-108.9646411 136.16963286 -92.98310725 143.08664513 -77.31713867 145.49487305 C-59.81176328 147.40594023 -42.52905363 143.25024484 -28.53588867 132.32299805 C-26.02709166 130.13157897 -23.65960815 127.86226241 -21.31713867 125.49487305 C-20.69323242 124.90448242 -20.06932617 124.3140918 -19.42651367 123.70581055 C-6.4671817 110.45460173 -2.79997394 92.31936579 -2.89697266 74.49755859 C-3.35041462 55.89195109 -10.04972279 40.62690714 -23.31713867 27.49487305 C-23.99260742 26.78588867 -24.66807617 26.0769043 -25.36401367 25.34643555 C-36.86496528 14.06166724 -53.05358552 9.52698961 -68.81713867 9.11987305 C-84.57365341 9.47983496 -97.89236816 13.95029469 -110.31713867 23.49487305 Z " fill="#000000" transform="translate(752.317138671875,50.505126953125)"/>
<path d="M0 0 C12.21 0 24.42 0 37 0 C37 28.05 37 56.1 37 85 C64.39 85 91.78 85 120 85 C120 56.95 120 28.9 120 0 C132.21 0 144.42 0 157 0 C157 65.01 157 130.02 157 197 C144.79 197 132.58 197 120 197 C120 170.93 120 144.86 120 118 C92.61 118 65.22 118 37 118 C37 144.07 37 170.14 37 197 C24.79 197 12.58 197 0 197 C0 131.99 0 66.98 0 0 Z " fill="#000000" transform="translate(394,30)"/>
<path d="M0 0 C6.59587454 6.71671499 15.43359375 17.74461584 15.43359375 27.60546875 C11.3423042 29.46162462 7.24885653 31.31290777 3.15332031 33.15966797 C1.75980965 33.78885915 0.36690211 34.41938785 -1.02539062 35.05126953 C-3.02447715 35.95826249 -5.02566938 36.86045413 -7.02734375 37.76171875 C-7.65136078 38.04607788 -8.27537781 38.33043701 -8.91830444 38.62341309 C-13.33866284 40.60546875 -13.33866284 40.60546875 -15.56640625 40.60546875 C-15.91832031 39.83203125 -16.27023437 39.05859375 -16.6328125 38.26171875 C-23.12178302 24.57219347 -31.31823243 16.91361194 -45.56640625 11.60546875 C-55.95150899 9.00919306 -67.11893794 9.51837043 -76.56640625 14.60546875 C-77.51515625 15.05921875 -78.46390625 15.51296875 -79.44140625 15.98046875 C-84.30884145 19.70262508 -86.46588091 24.70265102 -87.56640625 30.60546875 C-87.69048286 38.36715004 -85.44290009 43.58515022 -80.06640625 49.23046875 C-70.39967565 56.59219335 -56.56108032 59.21810794 -45.06787109 62.65234375 C-24.60335852 68.79125138 -0.74576055 76.52278433 10.37109375 96.36328125 C16.79861685 109.92724545 17.83248913 126.11795309 13.99609375 140.66796875 C8.03517873 156.70366972 -4.2390435 167.75016438 -19.52099609 174.76416016 C-27.95480122 178.23311366 -37.47380192 180.21156531 -46.56640625 180.60546875 C-47.40429688 180.65703125 -48.2421875 180.70859375 -49.10546875 180.76171875 C-63.28445904 181.2304457 -77.7279112 178.64610114 -90.56640625 172.60546875 C-91.50742188 172.16332031 -92.4484375 171.72117188 -93.41796875 171.265625 C-110.77746419 162.43917732 -125.07417811 147.2664227 -131.29296875 128.671875 C-131.72341749 127.31829014 -132.15007064 125.96346093 -132.56640625 124.60546875 C-128.3325831 122.74942144 -124.09672318 120.89813509 -119.85888672 119.05126953 C-118.41690712 118.42204798 -116.97549728 117.79151908 -115.53466797 117.15966797 C-113.46599622 116.25275544 -111.39533474 115.3505328 -109.32421875 114.44921875 C-108.67832794 114.16485962 -108.03243713 113.88050049 -107.36697388 113.58752441 C-102.79414966 111.60546875 -102.79414966 111.60546875 -100.56640625 111.60546875 C-100.26089844 112.3325 -99.95539063 113.05953125 -99.640625 113.80859375 C-93.35647081 127.61603113 -83.58738389 137.71536609 -69.6171875 143.9140625 C-59.29691326 147.65629494 -46.37561819 148.78872705 -35.87890625 144.98046875 C-30.180148 142.18021685 -25.9381314 138.86217787 -22.62890625 133.41796875 C-21.02562323 127.66501204 -20.21820839 121.93435234 -22.515625 116.26171875 C-30.95624067 101.98988911 -51.15384652 99.03835513 -65.92871094 94.48852539 C-80.55493934 89.96901532 -95.91359575 84.9665762 -107.56640625 74.60546875 C-108.448125 73.86103516 -108.448125 73.86103516 -109.34765625 73.1015625 C-119.08553232 64.23924108 -124.16305508 52.26769733 -124.84375 39.26953125 C-125.345814 23.1541277 -121.99257431 9.84243563 -111.31640625 -2.64453125 C-98.53459215 -16.13169629 -81.69392076 -22.34626469 -63.33984375 -23.390625 C-38.69099622 -23.41614141 -18.27843006 -17.05430384 0 0 Z " fill="#000000" transform="translate(1595.56640625,49.39453125)"/>
<path d="M0 0 C6.59587454 6.71671499 15.43359375 17.74461584 15.43359375 27.60546875 C11.3423042 29.46162462 7.24885653 31.31290777 3.15332031 33.15966797 C1.75980965 33.78885915 0.36690211 34.41938785 -1.02539062 35.05126953 C-3.02447715 35.95826249 -5.02566938 36.86045413 -7.02734375 37.76171875 C-7.65136078 38.04607788 -8.27537781 38.33043701 -8.91830444 38.62341309 C-13.33866284 40.60546875 -13.33866284 40.60546875 -15.56640625 40.60546875 C-15.91832031 39.83203125 -16.27023438 39.05859375 -16.6328125 38.26171875 C-23.12178302 24.57219347 -31.31823243 16.91361194 -45.56640625 11.60546875 C-55.95150899 9.00919306 -67.11893794 9.51837043 -76.56640625 14.60546875 C-77.51515625 15.05921875 -78.46390625 15.51296875 -79.44140625 15.98046875 C-84.30884145 19.70262508 -86.46588091 24.70265102 -87.56640625 30.60546875 C-87.69048286 38.36715004 -85.44290009 43.58515022 -80.06640625 49.23046875 C-70.39967565 56.59219335 -56.56108032 59.21810794 -45.06787109 62.65234375 C-24.60335852 68.79125138 -0.74576055 76.52278433 10.37109375 96.36328125 C16.79861685 109.92724545 17.83248913 126.11795309 13.99609375 140.66796875 C8.03517873 156.70366972 -4.2390435 167.75016438 -19.52099609 174.76416016 C-27.95480122 178.23311366 -37.47380192 180.21156531 -46.56640625 180.60546875 C-47.40429688 180.65703125 -48.2421875 180.70859375 -49.10546875 180.76171875 C-63.28445904 181.2304457 -77.7279112 178.64610114 -90.56640625 172.60546875 C-91.50742188 172.16332031 -92.4484375 171.72117188 -93.41796875 171.265625 C-110.77746419 162.43917732 -125.07417811 147.2664227 -131.29296875 128.671875 C-131.72341749 127.31829014 -132.15007064 125.96346093 -132.56640625 124.60546875 C-128.3325831 122.74942144 -124.09672318 120.89813509 -119.85888672 119.05126953 C-118.41690712 118.42204798 -116.97549728 117.79151908 -115.53466797 117.15966797 C-113.46599622 116.25275544 -111.39533474 115.3505328 -109.32421875 114.44921875 C-108.67832794 114.16485962 -108.03243713 113.88050049 -107.36697388 113.58752441 C-102.79414966 111.60546875 -102.79414966 111.60546875 -100.56640625 111.60546875 C-100.26089844 112.3325 -99.95539063 113.05953125 -99.640625 113.80859375 C-93.35647081 127.61603113 -83.58738389 137.71536609 -69.6171875 143.9140625 C-59.29691326 147.65629494 -46.37561819 148.78872705 -35.87890625 144.98046875 C-30.180148 142.18021685 -25.9381314 138.86217787 -22.62890625 133.41796875 C-21.02562323 127.66501204 -20.21820839 121.93435234 -22.515625 116.26171875 C-30.95624067 101.98988911 -51.15384652 99.03835513 -65.92871094 94.48852539 C-80.55493934 89.96901532 -95.91359575 84.9665762 -107.56640625 74.60546875 C-108.448125 73.86103516 -108.448125 73.86103516 -109.34765625 73.1015625 C-119.08553232 64.23924108 -124.16305508 52.26769733 -124.84375 39.26953125 C-125.345814 23.1541277 -121.99257431 9.84243563 -111.31640625 -2.64453125 C-98.53459215 -16.13169629 -81.69392076 -22.34626469 -63.33984375 -23.390625 C-38.69099622 -23.41614141 -18.27843006 -17.05430384 0 0 Z " fill="#000000" transform="translate(143.56640625,49.39453125)"/>
<path d="M0 0 C0.98613281 0.77859375 1.97226562 1.5571875 2.98828125 2.359375 C11.17642688 9.23000795 18.4675853 19.93022054 22 30 C21 33 21 33 18.2878418 34.64160156 C17.10359619 35.2187793 15.91935059 35.79595703 14.69921875 36.390625 C14.06643509 36.69949646 13.43365143 37.00836792 12.7816925 37.32659912 C11.44163509 37.97705016 10.09903683 38.62228849 8.75415039 39.26269531 C6.69824239 40.24486802 4.65476967 41.25000693 2.61132812 42.2578125 C1.30797767 42.88684005 0.00396158 43.51449066 -1.30078125 44.140625 C-2.48841064 44.71329102 -3.67604004 45.28595703 -4.8996582 45.87597656 C-8 47 -8 47 -10.33203125 46.81323242 C-12.92396674 45.54951212 -13.48643919 43.63414071 -14.6875 41.0625 C-21.57034058 27.77982519 -31.51358712 20.67407164 -45.359375 15.76171875 C-61.31363118 11.15952947 -78.25935601 14.21863825 -92.671875 21.92578125 C-107.74399628 31.31932163 -115.78437351 45.36536847 -120.25 62.25 C-124.09129165 82.45371667 -122.16558159 105.12374653 -110.71484375 122.6640625 C-102.33330259 134.08128714 -92.50294398 141.57316993 -79 146 C-78.33097656 146.22558594 -77.66195312 146.45117188 -76.97265625 146.68359375 C-63.42965264 150.45275982 -47.37412998 148.66933335 -34.90234375 142.45703125 C-23.55182381 135.63422903 -16.76441166 126.74431534 -11 115 C-4.31686892 117.12602458 1.94255275 120.02443549 8.3125 122.9375 C10.11944336 123.74477539 10.11944336 123.74477539 11.96289062 124.56835938 C13.10564453 125.09107422 14.24839844 125.61378906 15.42578125 126.15234375 C16.47161377 126.62663818 17.51744629 127.10093262 18.5949707 127.58959961 C21 129 21 129 22 132 C14.88979252 151.6857237 -1.38344323 166.26112382 -20 175 C-46.0118822 185.72190729 -75.03178431 185.85910266 -101.03222656 175.1640625 C-124.8783721 164.83492232 -142.9694396 145.83898646 -152.74633789 121.74560547 C-162.93980698 94.7545409 -162.93732688 63.19875201 -151.37036133 36.61181641 C-140.54287882 12.95972928 -122.33595283 -4.86835562 -98.10546875 -14.53125 C-65.33818973 -26.71788241 -27.28065419 -22.2962606 0 0 Z " fill="#000000" transform="translate(344,47)"/>
<path d="M0 0 C12.21 0 24.42 0 37 0 C37 54.12 37 108.24 37 164 C64.72 164 92.44 164 121 164 C121 174.89 121 185.78 121 197 C81.07 197 41.14 197 0 197 C0 131.99 0 66.98 0 0 Z " fill="#000000" transform="translate(1048,30)"/>
</svg>
